<svg data-v-0dd9719b="" version="1.0" xmlns="http://www.w3.org/2000/svg" xmlns:xlink="http://www.w3.org/1999/xlink" width="100%" height="100%" viewBox="0 0 340.000000 250.000000" preserveAspectRatio="xMidYMid meet" color-interpolation-filters="sRGB" style="margin: auto;"> <rect data-v-0dd9719b="" x="0" y="0" width="100%" height="100%" fill="#fff" fill-opacity="1" class="background"></rect> <rect data-v-0dd9719b="" x="0" y="0" width="100%" height="100%" fill="url(#watermark)" fill-opacity="1" class="watermarklayer"></rect> <g data-v-0dd9719b="" fill="#333" class="icon-text-wrapper icon-svg-group iconsvg" transform="translate(47.910003662109375,94.31730842590332)"><g class="iconsvg-imagesvg" transform="translate(0,0)"><g><rect fill="#333" fill-opacity="0" stroke-width="2" x="0" y="0" width="60" height="61.36537969828688" class="image-rect"></rect> <svg x="0" y="0" width="60" height="61.36537969828688" filtersec="colorsb5895842149" class="image-svg-svg primary" style="overflow: visible;"><svg xmlns="http://www.w3.org/2000/svg" viewBox="-0.00251007080078125 0 143.63192749023438 146.89999389648438"><path d="M66.16 0v146.9c-4-.72-7.77-1.21-11.45-2.12a73.18 73.18 0 0 1-28.58-14.17 2.78 2.78 0 0 1-1.13-3.46c.86-2.73 1.5-5.53 2.38-8.87 8.26 7.76 17.28 13.36 28.21 16.22V12.17C44.59 15 35.43 20.7 27 28.78c-.91-3.74-1.75-7.09-2.49-10.46a1.81 1.81 0 0 1 .67-1.38A71.48 71.48 0 0 1 66.16 0z" fill="#fb941c"></path><path d="M116.63 28.89c-8.31-8.14-17.51-13.8-28.63-16.73v122.33c10.87-2.76 19.93-8.3 28.25-16.25 1 3.75 1.92 7 2.61 10.35.12.56-.76 1.49-1.38 2a71.37 71.37 0 0 1-30.89 14.7c-2.94.62-5.92 1-9.12 1.55V.06c1.66.15 3.23.21 4.77.45a73 73 0 0 1 35.55 15.74 3 3 0 0 1 1.21 3.49c-.83 2.89-1.53 5.81-2.37 9.15z" fill="#303e8f"></path><path d="M127.39 119.26c-1.17-3.42-2.13-6.63-3.35-9.75-4.45-11.42-11.48-20.65-22.83-26-2.3-1.09-4.82-1.69-7.15-2.74a3.06 3.06 0 0 1-1.61-2.1 71 71 0 0 1 0-8.63 2.7 2.7 0 0 1 1.43-2c17.77-5.11 27.11-18 32.17-34.79.52-1.74 1.09-3.46 1.68-5.33 20.81 24.7 21.7 65.08-.34 91.34zM129.05 96c5.68-8.65 6-36.51.18-44.47-5.11 9.52-11.9 17.37-21.1 22.45 4.08 3.45 8.22 6.39 11.64 10S126 92 129.05 96z" fill="#303e8f"></path><path d="M16.25 119.31C-5.59 93.18-5.11 53.1 15.83 27.89c1 3.22 2 6.32 3.07 9.37 3.55 10 8.86 18.88 18 24.75 3.71 2.39 8 4 12.09 5.65 1.62.65 2.3 1.31 2.22 3-.13 2.64.08 5.29-.11 7.91a2.92 2.92 0 0 1-1.56 2.14c-16 4.64-25.39 15.86-30.84 31-.44 1.2-.83 2.42-1.22 3.64s-.77 2.46-1.23 3.96zm-1.44-22.88c5-9.22 11.75-16.74 21.31-22.07C26.21 68.84 19.46 61 14.39 51.55c-5.76 8-5.51 35.93.42 44.88z" fill="#fb941c"></path></svg></svg> <!----></g></g> <g transform="translate(67.00000381469727,2.0764408111572266)"><g data-gra="path-name" fill-rule="" class="tp-name iconsvg-namesvg" transform="translate(0,0)"><g transform="scale(1)"><g><path d="M24.43-36.56L24.43-36.56Q29.36-34.8 29.36-34.63L29.36-34.63Q29.36-34.63 29-34.28L29-34.28Q27.95-33.57 27.95-33.05L27.95-33.05Q27.6-30.23 27.25-26.89L27.25-26.89 35.68-26.89Q35.86-26.89 37.62-29.18L37.62-29.18Q40.08-27.25 41.84-24.96L41.84-24.96Q41.84-24.79 41.13-24.79L41.13-24.79Q37.27-24.61 33.4-19.34L33.4-19.34 32.7-19.69Q36.39-26.19 35.86-26.02L35.86-26.02 27.07-26.02Q26.72-21.97 26.19-19.51L26.19-19.51Q30.41-17.4 30.41-17.4L30.41-17.4Q30.41-17.23 29.71-16.7L29.71-16.7Q28.83-16.17 28.83-16L28.83-16Q28.65-5.8 28.65-1.23L28.65-1.23Q28.13 1.76 31.64 1.41L31.64 1.41Q36.04 1.41 37.09 1.23L37.09 1.23Q38.67 2.29 39.9-6.86L39.9-6.86 40.61-6.86Q40.08-0.35 42.36 1.05L42.36 1.05Q42.89 1.23 42.71 1.41L42.71 1.41Q41.48 3.87 38.32 4.04L38.32 4.04Q37.09 4.22 30.59 4.22L30.59 4.22Q24.79 5.1 25.66-1.93L25.66-1.93Q25.66-3.69 25.84-9.84L25.84-9.84Q25.84-14.77 25.84-16L25.84-16Q22.85-2.64 9.84 5.1L9.84 5.1 9.32 4.57Q23.38-5.63 24.26-26.02L24.26-26.02 18.11-26.02Q18.11-25.49 17.93-24.61L17.93-24.61Q17.93-20.92 17.23-20.39L17.23-20.39Q16-19.16 14.41-19.51L14.41-19.51Q13.01-20.04 13.89-21.45L13.89-21.45Q14.06-21.62 14.41-22.15L14.41-22.15Q16.88-24.96 16.88-28.83L16.88-28.83 17.58-28.83 17.93-26.89 24.26-26.89Q24.61-33.93 24.43-36.56ZM5.45-33.57L5.63-33.93Q10.02-32.87 11.6-31.11L11.6-31.11Q12.48-29.88 11.6-27.77L11.6-27.77Q10.55-26.02 9.67-27.42L9.67-27.42Q9.49-27.6 9.32-28.3L9.32-28.3Q8.26-31.64 5.45-33.57L5.45-33.57ZM13.71-29.36L13.71-29.36 14.24-29.18Q13.71-26.89 11.95-20.57L11.95-20.57Q8.44-7.73 8.26-5.98L8.26-5.98Q8.26-4.04 8.61 0.18L8.61 0.18Q8.79 2.64 8.79 3.16L8.79 3.16Q8.79 4.92 7.03 4.39L7.03 4.39Q5.1 3.52 5.27 1.93L5.27 1.93Q5.27 1.58 5.45 0.88L5.45 0.88Q6.5-2.46 5.8-4.57L5.8-4.57Q5.45-6.15 1.76-7.03L1.76-7.03 1.76-7.56Q4.22-7.38 5.45-7.56L5.45-7.56Q7.03-7.91 13.71-29.36ZM1.41-23.91L1.93-24.43Q7.03-21.97 7.56-20.74L7.56-20.74Q8.26-19.34 7.03-17.58L7.03-17.58Q5.63-16 5.1-17.58L5.1-17.58Q4.92-21.09 1.41-23.91L1.41-23.91ZM61-35.51L61-35.51Q62.4-34.63 64.51-32.34L64.51-32.34Q64.51-32.17 64.16-32.17L64.16-32.17Q62.75-31.99 61.88-30.41L61.88-30.41Q58.01-23.91 57.48-22.68L57.48-22.68Q57.48-22.68 58.01-22.15L58.01-22.15Q64.69-15.82 62.93-10.2L62.93-10.2Q61.35-7.03 58.01-5.8L58.01-5.8Q58.01-5.8 57.83-6.15L57.83-6.15Q57.3-8.26 54.14-9.49L54.14-9.49 54.14-9.84Q56.78-8.96 58.54-9.49L58.54-9.49Q61.7-11.6 60.12-16.52L60.12-16.52Q59.24-19.16 56.95-21.97L56.95-21.97Q56.6-22.5 56.6-22.5L56.6-22.5Q56.6-22.68 56.95-24.08L56.95-24.08Q58.18-27.77 59.59-32.52L59.59-32.52 55.37-32.52Q53.09-32.52 53.26-30.94L53.26-30.94 53.26 2.99Q52.38 4.04 50.27 4.04L50.27 4.04Q50.63 1.23 50.63-7.56L50.63-7.56Q50.8-11.6 50.8-17.93L50.8-17.93Q50.8-23.2 50.8-35.68L50.8-35.68 53.96-33.4 59.24-33.4Q59.41-33.57 60.12-34.45L60.12-34.45Q60.82-35.68 61-35.51ZM66.09-34.45L66.09-34.45 69.43-32.7 81.04-32.7Q81.39-32.7 82.09-33.75L82.09-33.75Q82.44-34.45 82.62-34.45L82.62-34.45Q86.13-32.34 85.96-31.99L85.96-31.99Q86.13-31.99 85.43-31.46L85.43-31.46Q84.9-30.94 84.38-30.41L84.38-30.41Q84.2-10.55 84.73 1.41L84.73 1.41Q83.5 2.99 81.74 2.64L81.74 2.64 81.74-2.99 68.55-2.99 68.55 2.11Q66.8 3.69 65.21 3.16L65.21 3.16Q66.09-7.21 66.09-34.45ZM81.74-31.64L70.84-31.64Q68.2-31.99 68.55-29.71L68.55-29.71 68.55-18.46 81.74-18.46 81.74-31.64ZM81.74-17.4L68.55-17.4 68.55-4.04 81.74-4.04 81.74-17.4ZM121.64-34.8L121.64-34.8Q124.1-33.22 125.51-31.46L125.51-31.46Q125.51-31.46 125.16-31.29L125.16-31.29Q123.57-30.94 122.52-29.88L122.52-29.88Q117.77-24.43 114.43-21.62L114.43-21.62Q121.46-17.75 133.07-17.05L133.07-17.05 133.07-16.7Q130.43-16.17 129.38-13.89L129.38-13.89Q129.2-13.54 129.2-13.54L129.2-13.54Q117.77-16.7 112.32-20.04L112.32-20.04Q103.36-13.89 90.88-11.95L90.88-11.95 90.88-12.48Q101.25-14.94 110.21-21.62L110.21-21.62Q104.77-25.84 101.43-31.64L101.43-31.64 99.32-31.64 97.21-31.11 96.15-32.7 119.71-32.7Q119.88-32.7 120.76-33.75L120.76-33.75Q121.64-34.8 121.64-34.8ZM119.53-31.64L102.3-31.64Q106.17-26.54 111.8-23.03L111.8-23.03Q115.31-25.66 119.53-31.64L119.53-31.64ZM110.21-7.38L110.04-15.82Q114.79-14.41 114.96-14.24L114.96-14.24Q114.96-14.06 113.91-13.36L113.91-13.36Q113.2-12.83 113.2-12.83L113.2-12.83 113.2-7.38 121.64-7.38 123.57-10.02 127.44-6.68 127.44-6.33 113.2-6.33 113.2 1.58 125.33 1.58 127.79-1.41 131.48 2.29 131.48 2.64 94.92 2.64 92.64 3.16 91.58 1.58 110.21 1.58 110.21-6.33 99.49-6.33 97.21-5.63 95.98-7.38 110.21-7.38ZM160.84-36.74L160.84-36.74Q165.06-34.98 165.06-34.98L165.06-34.98Q165.06-34.98 164.36-34.45L164.36-34.45Q163.83-34.1 163.65-33.93L163.65-33.93Q163.3-31.46 163.3-30.41L163.3-30.41 171.21-30.41 172.79-32.87 176.31-29.71 176.31-29.36 163.13-29.36Q162.95-27.95 162.77-27.42L162.77-27.42Q169.28-25.31 170.68-23.55L170.68-23.55Q171.74-22.5 171.04-20.92L171.04-20.92Q170.16-19.34 169.28-20.39L169.28-20.39Q169.1-20.57 168.93-20.92L168.93-20.92Q168.05-23.38 162.42-26.54L162.42-26.54Q160.84-21.62 152.58-19.86L152.58-19.86 152.4-20.21Q159.79-23.03 160.49-29.36L160.49-29.36 154.51-29.36 152.4-28.83 151.35-30.41 160.66-30.41Q161.02-33.57 160.84-36.74ZM173.14-18.81L175.08-21.45 178.59-18.11 178.59-17.75 172.09-17.75Q172.09-11.78 172.27-4.57L172.27-4.57Q172.44 2.11 172.27 1.93L172.27 1.93Q171.74 3.52 167.7 4.92L167.7 4.92Q167.7 4.92 167.52 4.57L167.52 4.57Q166.99 1.93 161.89 0.88L161.89 0.88 162.07 0.53Q169.45 1.41 169.28 0.53L169.28 0.53Q169.63-0.35 169.45-17.75L169.45-17.75 154.16-17.75 152.05-17.23 151-18.81 173.14-18.81ZM162.77-14.94L162.77-14.94Q162.95-14.94 165.94-12.66L165.94-12.66Q165.94-12.66 165.41-12.3L165.41-12.3Q164.36-11.6 164.36-11.43L164.36-11.43 164.53-3.34Q163.65-2.29 161.72-2.11L161.72-2.11 161.72-4.04 155.39-4.04 155.39-1.93Q154.69-0.88 152.93-0.7L152.93-0.7Q153.28-9.14 153.11-14.94L153.11-14.94 156.09-13.36 161.54-13.36Q162.6-14.94 162.77-14.94ZM161.89-5.1L161.89-12.3 156.8-12.3Q155.21-12.48 155.39-10.55L155.39-10.55 155.39-5.1 161.89-5.1ZM146.78-30.41L148.71-32.52 151.52-29.71 151.35-29.36 145.37-29.36 145.37-17.93 147.13-17.93 148.71-19.86 151.52-17.05 151.35-16.88 145.37-16.88 145.37-4.92 151.35-6.68 151.52-5.98Q140.98-1.76 138.16 0.35L138.16 0.35Q137.99 0.53 137.99 0.53L137.99 0.53 136.05-2.64Q136.05-2.64 136.58-2.81L136.58-2.81Q139.04-3.16 142.73-4.22L142.73-4.22 142.73-16.88 140.27-16.88 138.34-16.17 137.11-17.93 142.73-17.93 142.73-29.36 139.75-29.36 137.64-28.83 136.58-30.41 146.78-30.41Z" transform="translate(-1.409999966621399, 36.7400016784668)"></path></g> <!----> <!----> <!----> <!----> <!----> <!----> <!----></g></g> <g data-gra="path-slogan" fill-rule="" class="tp-slogan iconsvg-slogansvg" fill="#333" transform="translate(5,47.84000015258789)"><rect x="0" height="1" y="4.185000419616699" width="18.619171142578125"></rect> <rect height="1" y="4.185000419616699" width="18.619171142578125" x="148.56082153320312"></rect> <g transform="translate(21.619171142578125,0)"><g transform="scale(1)"><path d="M7.17-6.09L7.17-6.09L6.09-6.09Q6-7.73 3.94-7.83L3.94-7.83Q2.02-7.78 2.02-6.33L2.02-6.33Q2.02-5.39 3.05-5.25L3.05-5.25L5.48-4.69Q7.41-4.22 7.41-2.34L7.41-2.34Q7.36 0.05 4.03 0.14L4.03 0.14Q2.20 0.14 1.45-0.61L1.45-0.61Q0.52-1.31 0.56-2.77L0.56-2.77L1.69-2.77Q1.73-0.80 4.03-0.75L4.03-0.75Q6.28-0.80 6.33-2.20L6.33-2.20Q6.52-3.38 4.45-3.75L4.45-3.75L2.67-4.13Q0.84-4.64 0.84-6.19L0.84-6.19Q0.98-8.72 3.84-8.81L3.84-8.81Q7.08-8.81 7.17-6.09ZM10.03-5.06L14.53-5.06L14.53-8.58L15.70-8.58L15.70 0L14.53 0L14.53-3.98L10.03-3.98L10.03 0L8.86 0L8.86-8.58L10.03-8.58L10.03-5.06ZM18.80-1.03L23.95-1.03L23.95 0L17.63 0L17.63-8.58L23.86-8.58L23.86-7.59L18.80-7.59L18.80-4.92L23.48-4.92L23.48-3.89L18.80-3.89L18.80-1.03ZM26.86-8.58L31.17-1.64L31.17-8.58L32.30-8.58L32.30 0L30.98 0L26.63-6.94L26.58-6.94L26.58 0L25.45 0L25.45-8.58L26.86-8.58ZM41.02-8.58L37.78-3.47L37.78 0L36.61 0L36.61-3.47L33.38-8.58L34.73-8.58L37.17-4.45L39.66-8.58L41.02-8.58ZM47.72 0L46.88-2.48L43.41-2.48L42.52 0L41.34 0L44.58-8.58L45.89-8.58L48.98 0L47.72 0ZM45.14-7.31L43.78-3.52L46.45-3.52L45.19-7.31L45.14-7.31ZM51.42-8.58L55.73-1.64L55.73-8.58L56.86-8.58L56.86 0L55.55 0L51.19-6.94L51.14-6.94L51.14 0L50.02 0L50.02-8.58L51.42-8.58ZM65.06-3.61L62.44-3.61L62.44-4.59L66.19-4.59L66.19 0L65.44 0L65.16-1.08Q64.17 0.09 62.34 0.14L62.34 0.14Q60.61 0.14 59.67-0.75L59.67-0.75Q58.27-2.06 58.31-4.36L58.31-4.36Q58.64-8.63 62.39-8.81L62.39-8.81Q65.58-8.63 66.05-6L66.05-6L64.92-6Q64.45-7.78 62.34-7.83L62.34-7.83Q59.67-7.64 59.53-4.31L59.53-4.31Q59.53-0.75 62.39-0.75L62.39-0.75Q63.42-0.75 64.17-1.31L64.17-1.31Q65.11-2.06 65.06-3.61L65.06-3.61ZM77.58-6.09L77.58-6.09L76.50-6.09Q76.41-7.73 74.34-7.83L74.34-7.83Q72.42-7.78 72.42-6.33L72.42-6.33Q72.42-5.39 73.45-5.25L73.45-5.25L75.89-4.69Q77.81-4.22 77.81-2.34L77.81-2.34Q77.77 0.05 74.44 0.14L74.44 0.14Q72.61 0.14 71.86-0.61L71.86-0.61Q70.92-1.31 70.97-2.77L70.97-2.77L72.09-2.77Q72.14-0.80 74.44-0.75L74.44-0.75Q76.69-0.80 76.73-2.20L76.73-2.20Q76.92-3.38 74.86-3.75L74.86-3.75L73.08-4.13Q71.25-4.64 71.25-6.19L71.25-6.19Q71.39-8.72 74.25-8.81L74.25-8.81Q77.48-8.81 77.58-6.09ZM80.44-5.06L84.94-5.06L84.94-8.58L86.11-8.58L86.11 0L84.94 0L84.94-3.98L80.44-3.98L80.44 0L79.27 0L79.27-8.58L80.44-8.58L80.44-5.06ZM89.20-1.03L94.36-1.03L94.36 0L88.03 0L88.03-8.58L94.27-8.58L94.27-7.59L89.20-7.59L89.20-4.92L93.89-4.92L93.89-3.89L89.20-3.89L89.20-1.03ZM97.27-8.58L101.58-1.64L101.58-8.58L102.70-8.58L102.70 0L101.39 0L97.03-6.94L96.98-6.94L96.98 0L95.86 0L95.86-8.58L97.27-8.58ZM110.91-3.61L108.28-3.61L108.28-4.59L112.03-4.59L112.03 0L111.28 0L111-1.08Q110.02 0.09 108.19 0.14L108.19 0.14Q106.45 0.14 105.52-0.75L105.52-0.75Q104.11-2.06 104.16-4.36L104.16-4.36Q104.48-8.63 108.23-8.81L108.23-8.81Q111.42-8.63 111.89-6L111.89-6L110.77-6Q110.30-7.78 108.19-7.83L108.19-7.83Q105.52-7.64 105.38-4.31L105.38-4.31Q105.38-0.75 108.23-0.75L108.23-0.75Q109.27-0.75 110.02-1.31L110.02-1.31Q110.95-2.06 110.91-3.61L110.91-3.61ZM118.83-1.08L117.94-1.78L118.55-2.48L119.63-1.64Q120.61-2.63 120.61-4.27L120.61-4.27Q120.42-7.64 117.61-7.83L117.61-7.83Q114.75-7.69 114.61-4.27L114.61-4.27Q114.75-0.94 117.61-0.80L117.61-0.80Q118.31-0.80 118.83-1.08L118.83-1.08ZM120.56-0.94L121.69-0.05L121.13 0.56L119.81-0.33Q118.97 0.14 117.61 0.14L117.61 0.14Q113.67 0 113.39-4.27L113.39-4.27Q113.63-8.72 117.61-8.81L117.61-8.81Q121.50-8.67 121.78-4.27L121.78-4.27Q121.73-2.20 120.56-0.94L120.56-0.94ZM123.33-8.58L124.50-8.58L124.50 0L123.33 0L123.33-8.58Z" transform="translate(-0.5602678571428572, 8.8125)"></path></g></g></g></g></g><defs v-gra="od"></defs></svg>